<?xml version="1.0" standalone="no"?>
<!DOCTYPE svg PUBLIC "-//W3C//DTD SVG 20010904//EN"
 "http://www.w3.org/TR/2001/REC-SVG-20010904/DTD/svg10.dtd">
<svg version="1.0" xmlns="http://www.w3.org/2000/svg"
 width="417.000000pt" height="417.000000pt" viewBox="0 0 417.000000 417.000000"
 preserveAspectRatio="xMidYMid meet">
<metadata>
Created by potrace 1.11, written by Peter Selinger 2001-2013
</metadata>
<g transform="translate(0.000000,417.000000) scale(0.100000,-0.100000)"
fill="#000000" stroke="none">
<path d="M2975 3478 c-133 -17 -281 -103 -370 -215 -38 -48 -138 -237 -176
-330 -5 -13 -13 -33 -18 -45 -5 -13 -15 -40 -22 -60 -7 -21 -18 -39 -24 -39
-53 -7 -466 -3 -485 4 -37 14 -156 10 -216 -8 -66 -19 -147 -72 -201 -133
l-43 -47 0 88 c0 76 -2 87 -17 88 -10 1 -164 3 -343 4 -179 1 -329 3 -335 4
-6 1 -10 64 -10 167 0 134 -3 167 -15 175 -8 5 -43 8 -78 8 -71 -2 -84 -13
-96 -81 -8 -46 -75 -147 -121 -182 -54 -41 -130 -76 -195 -89 -32 -7 -61 -15
-64 -17 -4 -5 -9 -103 -7 -147 1 -21 6 -23 66 -23 l65 0 0 -612 c0 -664 0
-666 56 -768 84 -155 250 -238 506 -254 l57 -3 -40 45 c-22 25 -53 74 -70 109
-61 127 -62 144 -63 843 l-1 635 131 3 131 3 1 -783 c0 -431 1 -798 1 -817 1
-31 3 -33 28 -26 51 12 147 58 215 102 77 50 136 113 170 181 l23 47 3 575 3
575 33 23 c70 48 143 37 163 -25 14 -42 9 -1436 -5 -1495 -22 -90 -55 -160
-99 -215 l-46 -56 87 6 c232 18 419 114 487 253 l24 49 3 764 c1 482 -1 776
-8 799 -5 20 -7 38 -4 41 3 3 66 6 139 6 114 1 136 -2 139 -15 3 -8 5 -368 5
-800 0 -432 0 -791 0 -797 1 -9 19 -5 59 13 154 68 294 178 348 276 l29 53 3
633 3 632 74 1 c41 0 95 0 120 0 25 0 56 0 70 0 l25 -1 2 -811 3 -810 95 47
c178 89 288 189 326 297 13 36 15 136 16 658 l0 616 80 0 c48 0 83 5 87 12 4
6 7 43 6 82 -1 76 -9 88 -55 89 -45 1 -109 36 -116 65 -6 23 0 119 10 170 3
11 5 26 5 33 1 19 18 14 24 -8 3 -11 22 -28 44 -37 32 -13 49 -14 114 -5 103
15 178 50 242 114 83 84 98 182 42 273 -50 80 -130 107 -275 93 -116 -11 -213
-57 -333 -158 -57 -47 -155 -220 -233 -410 l-51 -125 -162 0 -163 0 6 105 c3
58 8 114 10 125 3 11 5 23 5 28 2 12 21 8 21 -6 0 -38 103 -54 201 -31 111 26
201 85 246 161 47 81 30 206 -37 261 -57 47 -144 64 -255 50z"/>
</g>
</svg>
